PathFileType	4	(X/Y/Z)	Patient4_TMGait_0pt6_02_left_12.trc.trc
DataRate	CameraRate	NumFrames	NumMarkers	Units	OrigDataRate	OrigDataStartFrame	OrigNumFrames
79.096045197740	79.096045197740	4	33	mm	79.096045197740	106	       141
Frame#	Time	Sacral			L.Shoulder			Chest			R.Shoulder			Neck			R.ASIS			L.ASIS			R.Thigh.Superior			R.Thigh.Lateral			R.Thigh.Inferior			R.Patella			L.Thigh.Superior			L.Thigh.Lateral			L.Thigh.Inferior			L.Patella			L.Shank.Superior			L.Shank.Lateral			L.Shank.Inferior			R.Shank.Superior			R.Shank.Lateral			R.Shank.Inferior			R.Heel			R.Midfoot.Superior			R.Midfoot.Lateral			R.Toe			L.Heel			L.Midfoot.Lateral			L.Midfoot.Superior			L.Toe			L.Elbow			L.Wrist			R.Elbow			R.Wrist			
		X1	Y1	Z1	X2	Y2	Z2	X3	Y3	Z3	X4	Y4	Z4	X5	Y5	Z5	X6	Y6	Z6	X7	Y7	Z7	X8	Y8	Z8	X9	Y9	Z9	X10	Y10	Z10	X11	Y11	Z11	X12	Y12	Z12	X13	Y13	Z13	X14	Y14	Z14	X15	Y15	Z15	X16	Y16	Z16	X17	Y17	Z17	X18	Y18	Z18	X19	Y19	Z19	X20	Y20	Z20	X21	Y21	Z21	X22	Y22	Z22	X23	Y23	Z23	X24	Y24	Z24	X25	Y25	Z25	X26	Y26	Z26	X27	Y27	Z27	X28	Y28	Z28	X29	Y29	Z29	X30	Y30	Z30	X31	Y31	Z31	X32	Y32	Z32	X33	Y33	Z33	

106	16.037500000000	738.266564007956	1013.114101645924	508.304471564455	915.711555222135	1433.476719747528	314.300289832233	1029.299141170648	1359.357282613403	465.764056310859	965.359223160072	1439.354898389186	644.237498242937	931.467499350135	1495.614501805626	464.304632280647	969.425695760243	942.883515241470	612.122340644345	940.132093751511	964.362854633655	339.433979361921	999.350783897430	737.880696244129	580.002532443310	912.874719264645	632.847021134909	638.352735364819	984.060410141382	578.014081935137	555.077807222449	978.810756968559	491.090542085461	557.857803149486	1030.215233055474	794.639221077049	374.396218319291	998.903746828789	665.814007293689	295.380939066929	1102.970730014802	610.348494240478	361.803642176411	1127.116638035252	527.319592308897	353.194226122373	1080.398691340311	452.423063055180	343.314299095530	961.224060203636	366.608297855396	295.200705241370	995.614654769275	239.530909923077	347.228046980891	950.360168506398	403.655994491782	563.347519877019	878.256731789678	299.649503597010	622.175535402848	917.422123970140	205.817903247386	555.878459923505	780.621667144405	42.443244467627	521.805101549323	951.672442029544	96.624673652469	558.178436424506	863.372954749067	36.864765793681	597.005615762056	1071.840644677667	42.322343983502	587.500771669118	840.840347160475	114.201054357949	386.975979734196	908.105963841758	89.738306501015	305.502117796503	1004.531682509977	132.297871083630	324.694594563825	1114.136363558513	52.445322449345	295.303717369299	851.304986203648	1076.106804944815	224.141580771200	914.188331620094	822.954017356804	212.162001619007	1019.387730396821	1096.919090361107	767.144402062142	1239.931432998463	985.934996036139	692.566867941518	
107	16.050142857143	737.819956924320	1013.562251014317	509.304690138754	915.100428586809	1433.404851089175	314.688153776190	1029.316440757930	1359.063366772178	465.510152795538	966.693947271157	1439.387680572040	644.296996412981	931.725348538362	1495.569665688468	464.624961155920	968.924610396281	942.758218033021	612.232592027604	938.882205316861	964.353242858120	339.541661943821	996.359851460896	737.156623949503	579.937920447951	909.042959870826	632.843305508361	638.831391406823	979.312472470907	577.259808517081	555.473163199440	973.190875528730	490.592917537847	558.331148402323	1028.482805645101	795.031699131959	374.547806863985	997.520710728778	665.891733662662	295.391575636409	1101.252016557426	610.932943966524	362.404171264951	1126.894631596621	530.022457744587	353.725884070348	1084.376045305006	454.587143829972	343.626923040694	971.717935166327	361.042928103375	295.011432419611	1014.606413632853	236.400678889167	347.371179500705	944.351682367295	403.418681473455	563.754902663390	871.751244230814	299.696427312264	622.507595597526	910.431795130484	205.684604101169	556.126623280676	773.000384771653	42.571159681021	521.869509237942	944.096970178854	96.545225569214	558.310340192923	855.755862359475	36.872921775695	597.057919406984	1064.222134606657	42.014584815939	587.638625846164	869.091488828305	100.187780645717	386.906169720912	938.070494855533	80.956383179924	305.495281857965	1031.113285868794	130.134956980115	324.895219517506	1146.178947356061	58.428182234097	295.576456800600	846.572315137684	1076.416738067126	226.159832613383	896.978970836096	820.862908499437	214.295820805155	1029.666365126504	1099.016535186898	766.097406487421	1255.768463548850	1004.955489664180	687.062176501357	
108	16.062785714286	737.471278713118	1013.959489016564	510.141052463469	914.618394481146	1433.368324008197	314.974814135188	1029.388822942070	1358.730546773159	465.167393845712	967.996768408693	1439.335072914910	644.251039775627	932.013960207231	1495.488876055859	464.867839111010	968.476864143438	942.635231816400	612.268506690956	937.779038821500	964.189099496694	339.545923289372	993.398262658681	736.426609273274	579.981969293220	905.094619837940	632.858500617398	639.296724913713	974.481521821667	576.505454496812	555.939684054245	967.467650124463	490.124325821114	558.859860677121	1026.476186044008	794.834994319943	374.559649110132	995.521551603547	665.474580930122	295.188051992947	1098.841720385755	610.803315648065	362.820198741973	1125.833173124175	532.170419021426	354.228732682793	1087.550855929685	456.512875875699	343.979636134393	982.041331480680	355.655853943852	294.618457073867	1033.021359034440	234.060002886247	347.606936367803	938.244829810746	403.215844589222	564.185650727615	865.137931723171	299.768478217960	622.851049095139	903.388259844957	205.585878633541	556.399816486753	765.367572818566	42.709661618248	521.936930196355	936.521044352932	96.478108704336	558.454047955167	848.128270844609	36.880101770947	597.105352957657	1056.589716002110	41.736919541541	587.769285843502	897.300151487474	87.741024521017	386.594409176478	967.944811368152	73.611536503634	305.567881468166	1057.105070457364	129.142720835710	325.406963340525	1177.098850269665	65.780556030087	296.783333704401	841.587082074911	1077.007424372933	227.721353967067	880.468562687128	819.828474298522	216.285968027060	1039.661228372998	1101.229643982304	764.728569529009	1269.971814563751	1024.157796762051	681.544787467424	
109	16.075428571429	737.210771638946	1014.295542021232	510.808323080826	914.262129024080	1433.351979265099	315.152100804282	1029.506802688320	1358.358265620761	464.741855937977	969.238005591738	1439.204901769478	644.096063896865	932.325362495928	1495.367803814366	465.020587035885	968.098890105660	942.510953188566	612.229971851095	936.833192352986	963.884185515221	339.448154078371	990.516040985028	735.694864361789	580.132520164973	901.073389351070	632.891575095726	639.730632954548	969.618093320468	575.758061722252	556.458803425297	961.700107402800	489.675026778894	559.417913774534	1024.259367374194	794.105820432958	374.456787269235	993.029141002543	664.627725099842	294.784736571892	1095.912334723144	610.051962595857	363.031091960440	1124.089452104592	533.794406061929	354.697842122749	1090.002540633613	458.210782562639	344.360312690617	992.060447300534	350.595888363715	294.088985306874	1050.592444243752	232.551298078941	347.945170801658	932.078921233365	403.036081959571	564.614495740695	858.451337395228	299.867820641894	623.196700820128	896.314351421519	205.520423113738	556.686965802339	757.725505901828	42.859953193567	522.008563682413	928.948093955163	96.423900643753	558.606107030411	840.492339530559	36.888018209558	597.144104629341	1048.948343028573	41.489986447890	587.890806756002	924.945223677034	77.064037465898	386.145750673564	997.181184257572	67.791956977961	305.775503731549	1082.091029877554	129.302922598628	326.210429195876	1206.422211289325	74.291570051757	298.828923339919	836.387663814559	1077.869350720884	228.814020474378	864.820293975634	819.692069493046	218.117451341156	1049.336279816122	1103.538201094503	763.039961296622	1282.557093584475	1043.301008664979	676.064395538713	
